# xmcd
#
# Track frame offsets:
#	182
#	18000
#	35115
#	51757
#	68612
#	83855
#	98727
#	111140
#	129595
#	142680
#	157862
#	173582
#	186997
#	202582
#
# Disc length: 2900 seconds
#
# Revision: 1
# Processed by: cddbd v1.5.2PL0 Copyright (c) Steve Scherf et al.
# Submitted via: audiograbber 1.83.01
#
DISCID=a50b520e
DTITLE=Ulli Martin - Monika
DYEAR=1988
DGENRE=Schlager
TTITLE0=Monika
TTITLE1=Du mußt nicht weinen
TTITLE2=Ich träume mit offenen Augen von dir
TTITLE3=Ein einsames Herz, das braucht Liebe
TTITLE4=Ich liebe dich
TTITLE5=Du bist das allerschönste Mädchen
TTITLE6=Per Fantasie
TTITLE7=Meine Fehler seh ich ein
TTITLE8=Südeseetraum
TTITLE9=Die Sehnsucht brennt
TTITLE10=Ein Traum wird wahr
TTITLE11=Eine Insel aus Träumen geboren
TTITLE12=Träumen von der Südsee
TTITLE13=Steig in das Traumboot der Liebe
EXTD=
EXTT0=
EXTT1=
EXTT2=
EXTT3=
EXTT4=
EXTT5=
EXTT6=
EXTT7=
EXTT8=
EXTT9=
EXTT10=
EXTT11=
EXTT12=
EXTT13=
PLAYORDER=
